<?xml version="1.0" standalone="no"?>
<!DOCTYPE svg PUBLIC "-//W3C//DTD SVG 20010904//EN"
 "http://www.w3.org/TR/2001/REC-SVG-20010904/DTD/svg10.dtd">
<svg version="1.0" xmlns="http://www.w3.org/2000/svg"
 width="2201.000000pt" height="608.000000pt" viewBox="0 0 2201.000000 608.000000"
 preserveAspectRatio="xMidYMid meet">
<metadata>
Created by potrace 1.16, written by Peter Selinger 2001-2019
</metadata>
<g transform="translate(0.000000,608.000000) scale(0.100000,-0.100000)"
fill="#000000" stroke="none">
<path d="M4710 6058 c-176 -62 -300 -193 -345 -363 -32 -123 -14 -283 43 -389
34 -66 152 -184 218 -218 107 -57 280 -76 395 -42 181 53 327 205 370 384 20
88 15 215 -14 297 -49 143 -135 238 -276 306 -83 40 -87 41 -205 44 -106 3
-129 1 -186 -19z"/>
<path d="M14621 4819 c-229 -25 -488 -98 -681 -190 -428 -204 -709 -571 -807
-1054 -15 -73 -18 -136 -18 -340 1 -232 3 -259 28 -376 105 -493 364 -828 812
-1052 277 -138 518 -187 923 -187 250 0 424 16 617 57 238 50 539 166 595 230
l31 34 -3 379 c-3 367 -4 379 -24 407 -17 22 -30 29 -65 31 -38 2 -59 -6 -149
-58 -252 -144 -503 -221 -780 -237 -366 -21 -717 155 -856 429 -48 95 -69 193
-69 328 0 103 4 138 23 200 38 119 79 187 172 281 260 263 675 347 1105 224
86 -25 248 -99 437 -201 76 -42 90 -46 119 -38 17 5 41 22 53 37 20 28 21 39
22 410 1 222 -2 396 -8 415 -12 40 -34 52 -185 98 -435 134 -656 173 -993 179
-118 2 -253 -1 -299 -6z"/>
<path d="M74 4776 c-20 -9 -35 -25 -43 -46 -14 -42 -16 -2976 -1 -3014 5 -14
21 -33 37 -43 25 -17 60 -18 458 -18 398 0 433 1 458 18 16 10 32 29 37 43 6
15 10 321 10 770 0 418 4 744 9 744 5 0 159 -184 344 -408 355 -433 372 -450
443 -439 18 3 44 13 59 23 14 9 174 198 356 420 182 222 335 406 340 409 5 4
9 -290 9 -744 0 -452 4 -760 10 -775 5 -14 21 -33 37 -43 25 -17 62 -18 453
-21 479 -3 493 -2 522 58 17 33 18 126 18 1510 0 1384 -1 1477 -18 1510 -9 19
-28 40 -42 47 -40 20 -821 18 -859 -2 -23 -12 -408 -471 -810 -968 -45 -55
-69 -77 -82 -75 -11 2 -194 217 -435 513 -228 280 -428 518 -442 527 -25 16
-62 18 -432 18 -318 -1 -412 -4 -436 -14z"/>
<path d="M4433 4780 c-12 -5 -30 -21 -40 -37 -17 -26 -18 -96 -18 -1513 0
-817 3 -1497 8 -1512 4 -15 19 -36 34 -45 25 -17 64 -18 473 -18 415 0 448 1
474 18 59 39 56 -45 55 1549 0 1106 -3 1472 -12 1498 -8 24 -23 41 -47 52 -32
16 -75 18 -470 17 -239 0 -445 -4 -457 -9z"/>
<path d="M6215 4781 c-11 -5 -29 -19 -40 -31 -20 -22 -20 -38 -23 -1514 -2
-1405 -1 -1493 15 -1526 12 -24 29 -39 53 -47 46 -16 837 -18 893 -2 26 7 44
21 57 42 19 31 20 55 20 558 0 461 2 528 15 539 24 20 154 14 218 -10 79 -30
129 -69 190 -152 89 -119 139 -215 308 -593 88 -198 170 -368 181 -377 19 -17
57 -18 494 -18 505 0 528 2 553 48 26 49 13 89 -135 410 -280 606 -359 748
-478 859 -38 35 -64 67 -61 75 3 7 26 26 51 42 123 78 236 218 287 354 47 126
60 219 54 376 -6 162 -26 254 -86 382 -158 337 -463 543 -865 583 -129 13
-1670 14 -1701 2z m1402 -745 c136 -43 228 -206 194 -343 -36 -144 -147 -192
-448 -193 -116 0 -144 3 -157 16 -14 13 -16 52 -16 268 0 188 3 255 13 265 18
19 344 9 414 -13z"/>
<path d="M10561 4763 c-21 -20 -61 -99 -134 -268 -58 -132 -348 -790 -645
-1463 -298 -673 -544 -1238 -548 -1258 -3 -19 -1 -47 6 -63 23 -56 22 -56 526
-56 l464 0 24 25 c14 14 65 125 120 261 52 130 100 248 107 262 25 55 26 55
629 53 494 -1 559 -3 581 -17 18 -12 47 -73 118 -250 123 -307 127 -315 160
-328 19 -8 160 -11 482 -9 494 3 486 2 510 60 6 16 9 43 6 61 -3 17 -215 509
-472 1092 -257 583 -539 1224 -627 1425 -210 478 -204 468 -238 485 -25 13
-107 15 -534 15 l-506 0 -29 -27z m699 -1403 c168 -419 163 -405 143 -422 -23
-19 -586 -19 -605 0 -13 13 -22 -10 214 570 50 123 94 220 99 215 4 -4 71
-168 149 -363z"/>
<path d="M16761 4776 c-53 -30 -50 50 -51 -1556 0 -1367 1 -1498 16 -1519 37
-53 -2 -51 1186 -51 1030 0 1105 1 1138 18 59 29 60 32 60 420 0 373 -3 397
-47 418 -10 5 -305 11 -656 14 -552 4 -639 7 -647 20 -6 9 -10 425 -10 1075 0
675 -4 1073 -10 1096 -6 20 -20 45 -31 55 -20 18 -45 19 -473 21 -362 2 -456
0 -475 -11z"/>
<path d="M19683 4780 c-12 -5 -30 -21 -40 -37 -17 -26 -18 -99 -21 -1501 -1
-1008 1 -1486 8 -1513 22 -80 -73 -74 1175 -77 1042 -2 1112 -1 1145 15 60 31
60 36 58 374 -3 344 -2 338 -77 359 -22 6 -267 10 -638 10 l-602 0 -15 22
c-13 19 -16 57 -16 220 0 185 1 199 20 218 20 20 33 20 588 20 544 0 568 1
599 20 22 13 34 29 38 52 3 18 5 167 3 330 -3 294 -3 298 -26 320 l-23 23
-585 5 c-568 5 -586 6 -600 25 -12 15 -14 53 -12 184 3 165 3 165 28 178 19
10 159 13 613 13 653 0 635 -2 663 65 21 51 20 570 -1 621 -28 67 35 64 -1172
63 -604 0 -1098 -4 -1110 -9z"/>
</g>
</svg>
