<svg id="Layer_1" data-name="Layer 1" xmlns="http://www.w3.org/2000/svg" viewBox="0 0 259 258"><defs><style>.cls-1{fill:#ef4048;}.cls-2{fill:#fff;}</style></defs><title>DPKA_</title><path class="cls-1" d="M182.25,10.15H76.75a66.3,66.3,0,0,0-66.1,66.1v105.5a66.3,66.3,0,0,0,66.1,66.1h105.5a66.24,66.24,0,0,0,66.1-66.1V76.35C248.35,40.05,218.65,10.15,182.25,10.15Z"/><path class="cls-2" d="M193.08,157.93c0,22.48-19,35.57-54.55,35.57H65.92V64.5h68.92C170.41,64.5,187,78.69,187,98.23c0,12-6.09,21.92-17.88,27.82C184.23,131.58,193.08,142.64,193.08,157.93Zm-84.4-63v19.16H129c9.76,0,14.19-3.31,14.19-9.58s-4.43-9.58-14.19-9.58ZM149.22,153c0-6.64-4.79-10.14-14.38-10.14H108.68v20.27h26.16C144.43,163.09,149.22,159.59,149.22,153Z"/></svg>