<svg id="Layer_1" data-name="Layer 1" xmlns="http://www.w3.org/2000/svg" viewBox="0 0 259 258"><defs><style>.cls-1{fill:#fff;}.cls-2{fill:#0d416b;}</style></defs><title>DPKA_</title><rect class="cls-1" x="42.95" y="51.05" width="175" height="152"/><path class="cls-2" d="M182.25,10.15H76.75a66.3,66.3,0,0,0-66.1,66.1v105.5a66.3,66.3,0,0,0,66.1,66.1h105.5a66.24,66.24,0,0,0,66.1-66.1V76.35C248.35,40.05,218.65,10.15,182.25,10.15Zm19.8,177c0,3.6-1.5,5.2-5.1,5.2h-31.1c-3.9-.1-5.4-1.5-5.4-5.5v-58.6l-.7-.2c-5.6,6.8-11.3,13.7-16.9,20.6-3.1,3.9-6.2,7.7-9.4,11.5-3.1,3.6-6.3,3.7-9.4,0-8.3-10-16.5-20.1-24.7-30.1-.6-.7-1-1.6-2-2-.6,1.1-.3,2.2-.3,3.2v55.2c0,4.5-1.3,5.8-5.9,5.8H62.35c-4.5,0-5.8-1.3-5.8-5.9V71.55c0-4.5,1.3-5.9,5.8-5.9,9.3,0,18.6.1,27.9,0a5.5,5.5,0,0,1,5,2.3c10.6,13.1,21.4,26.1,31.9,39.3,1.7,2.1,2.5,2.2,4.2,0,10.6-13.2,21.5-26.3,32.2-39.4a5.36,5.36,0,0,1,4.5-2.2h29.1c3.6.1,5.1,1.7,4.9,5.2Z"/></svg>