<?xml version="1.0" encoding="utf-8"?>
<!-- Generator: Adobe Illustrator 24.2.3, SVG Export Plug-In . SVG Version: 6.00 Build 0)  -->
<svg version="1.1" id="Layer_1" xmlns="http://www.w3.org/2000/svg" xmlns:xlink="http://www.w3.org/1999/xlink" x="0px" y="0px"
	 viewBox="0 0 32.7 32.7" style="enable-background:new 0 0 32.7 32.7;" xml:space="preserve">
<style type="text/css">
	.st0{fill:#0D416B;}
	.st1{fill:#FFFFFF;}
</style>
<circle class="st0" cx="16.4" cy="16.4" r="16"/>
<g>
	<g>
		<path class="st1" d="M22.9,25.1H9.8V7.6h9.8l3.3,3.3V25.1z M11.3,23.7h10.2V11.6L19,9.1h-7.7V23.7z"/>
	</g>
	<g>
		<g>
			<g>
				<path class="st1" d="M14.9,14.2h-0.7c-0.8,0-1.5-0.7-1.5-1.5V12c0-0.8,0.7-1.5,1.5-1.5h2.9V12h-2.9v0.7h0.7V14.2z"/>
			</g>
			<g>
				<path class="st1" d="M15.6,16.4h-2.9v-1.5h2.9v-0.7h-1.5v-1.5h1.5c0.8,0,1.5,0.7,1.5,1.5v0.7C17.1,15.7,16.4,16.4,15.6,16.4z"/>
			</g>
		</g>
		<g>
			<rect x="14.2" y="9.8" class="st1" width="1.5" height="1.5"/>
		</g>
		<g>
			<rect x="14.2" y="15.6" class="st1" width="1.5" height="1.5"/>
		</g>
	</g>
	<g>
		<rect x="12.7" y="17.8" class="st1" width="7.3" height="1.5"/>
	</g>
	<g>
		<rect x="12.7" y="20" class="st1" width="4.4" height="1.5"/>
	</g>
	<g>
		<polygon class="st1" points="21.5,12.7 17.8,12.7 17.8,9.1 19.3,9.1 19.3,11.3 21.5,11.3 		"/>
	</g>
</g>
</svg>
