<?xml version="1.0" encoding="utf-8"?>
<!-- Generator: Adobe Illustrator 24.2.3, SVG Export Plug-In . SVG Version: 6.00 Build 0)  -->
<svg version="1.1" id="Layer_1" xmlns="http://www.w3.org/2000/svg" xmlns:xlink="http://www.w3.org/1999/xlink" x="0px" y="0px"
	 viewBox="0 0 32.7 32.7" style="enable-background:new 0 0 32.7 32.7;" xml:space="preserve">
<style type="text/css">
	.st0{fill:#0D416B;}
	.st1{fill:#FFFFFF;}
</style>
<circle class="st0" cx="16.4" cy="16.4" r="16"/>
<g>
	<g>
		<polygon class="st1" points="12.7,15.1 10.8,13.1 11.8,12.1 12.7,13 15.1,10.6 16.2,11.7 		"/>
	</g>
	<g>
		<rect x="17.8" y="10.4" class="st1" width="5.8" height="1.5"/>
	</g>
	<g>
		<rect x="17.8" y="12.6" class="st1" width="4.3" height="1.5"/>
	</g>
	<g>
		<polygon class="st1" points="10.6,15.5 9.1,15.5 9.1,8.2 16.4,8.2 16.4,9.7 10.6,9.7 		"/>
	</g>
	<g>
		<polygon class="st1" points="12.7,23.8 10.8,21.9 11.8,20.8 12.7,21.8 15.1,19.4 16.2,20.4 		"/>
	</g>
	<g>
		<rect x="17.8" y="19.2" class="st1" width="5.8" height="1.5"/>
	</g>
	<g>
		<rect x="17.8" y="21.4" class="st1" width="4.3" height="1.5"/>
	</g>
	<g>
		<polygon class="st1" points="10.6,24.3 9.1,24.3 9.1,17 16.4,17 16.4,18.4 10.6,18.4 		"/>
	</g>
</g>
</svg>
