<?xml version="1.0" encoding="utf-8"?>
<!-- Generator: Adobe Illustrator 24.2.3, SVG Export Plug-In . SVG Version: 6.00 Build 0)  -->
<svg version="1.1" id="Layer_1" xmlns="http://www.w3.org/2000/svg" xmlns:xlink="http://www.w3.org/1999/xlink" x="0px" y="0px"
	 viewBox="0 0 32.7 32.7" style="enable-background:new 0 0 32.7 32.7;" xml:space="preserve">
<style type="text/css">
	.st0{fill:#0D416B;}
	.st1{fill:#FFFFFF;}
</style>
<circle class="st0" cx="16.4" cy="16.4" r="16"/>
<g>
	<g>
		<path class="st1" d="M23.8,22.2H9.2c-0.8,0-1.5-0.7-1.5-1.5v-9.5c0-0.8,0.7-1.5,1.5-1.5h2.9v1.5H9.2v9.5h14.6v-9.5h-2.9V9.8h2.9
			c0.8,0,1.5,0.7,1.5,1.5v9.5C25.3,21.6,24.6,22.2,23.8,22.2z"/>
	</g>
	<g>
		<rect x="12.9" y="17.9" class="st1" width="5.8" height="1.5"/>
	</g>
	<g>
		<rect x="17.3" y="22.2" class="st1" width="1.5" height="2.2"/>
	</g>
	<g>
		<polyline class="st1" points="15.8,22.2 15.8,24.4 14.4,24.4 14.4,22.2 15.8,22.2 		"/>
	</g>
	<g>
		<rect x="8.5" y="17.9" class="st1" width="16" height="1.5"/>
	</g>
	<g>
		<rect x="13.6" y="23.7" class="st1" width="5.8" height="1.5"/>
	</g>
	<g>
		<g>
			<path class="st1" d="M16.5,17.1c-1.9,0-3.7-1.1-5.3-3.1L11,13.7l0.2-0.3c1.5-2,3.4-3.1,5.3-3.1c1.9,0,3.7,1.1,5.3,3.1l0.2,0.3
				L21.8,14C20.3,16,18.5,17.1,16.5,17.1z M12.3,13.7c1.3,1.6,2.8,2.4,4.3,2.4c1.5,0,3-0.8,4.3-2.4c-1.3-1.6-2.8-2.4-4.3-2.4
				C15,11.3,13.6,12.1,12.3,13.7z"/>
		</g>
		<g>
			<path class="st1" d="M16.5,15.7c-1.1,0-2-0.9-2-2s0.9-2,2-2c1.1,0,2,0.9,2,2S17.6,15.7,16.5,15.7z M16.5,12.8c-0.5,0-1,0.4-1,1
				c0,0.5,0.4,1,1,1c0.5,0,1-0.4,1-1C17.5,13.2,17.1,12.8,16.5,12.8z"/>
		</g>
	</g>
</g>
</svg>
