<?xml version="1.0" encoding="utf-8"?>
<!-- Generator: Adobe Illustrator 24.2.3, SVG Export Plug-In . SVG Version: 6.00 Build 0)  -->
<svg version="1.1" id="Layer_1" xmlns="http://www.w3.org/2000/svg" xmlns:xlink="http://www.w3.org/1999/xlink" x="0px" y="0px"
	 viewBox="0 0 32.7 32.7" style="enable-background:new 0 0 32.7 32.7;" xml:space="preserve">
<style type="text/css">
	.st0{fill:#0D416B;}
	.st1{fill:#FFFFFF;}
</style>
<circle class="st0" cx="16.4" cy="16.4" r="16"/>
<g>
	<circle class="st1" cx="11.3" cy="9.1" r="1.5"/>
	<rect x="9.8" y="17.1" class="st1" width="2.9" height="8"/>
	<path class="st1" d="M12.7,11.3l-1.5,1.5l-1.5-1.5c-0.8,0-1.5,0.7-1.5,1.5v1.5v2.2v2.2h5.8v-2.2v-2.2v-1.5
		C14.2,11.9,13.5,11.3,12.7,11.3z"/>
	<g>
		<rect x="14.9" y="7.6" class="st1" width="1.5" height="17.5"/>
	</g>
	<g>
		<path class="st1" d="M15.6,25.1v-1.5c4,0,7.3-3.3,7.3-7.3c0-4-3.3-7.3-7.3-7.3V7.6c4.8,0,8.7,3.9,8.7,8.7S20.5,25.1,15.6,25.1z"/>
	</g>
	<g>
		<path class="st1" d="M15.6,25.1v-1.5c2.1,0,3.9-3.3,3.9-7.3c0-4-1.8-7.3-3.9-7.3V7.6c3,0,5.4,3.8,5.4,8.7
			C21,21.3,18.7,25.1,15.6,25.1z"/>
	</g>
	<g>
		<rect x="15.6" y="12.7" class="st1" width="7.3" height="1.5"/>
	</g>
	<g>
		<rect x="15.6" y="18.5" class="st1" width="7.3" height="1.5"/>
	</g>
</g>
</svg>
