<?xml version="1.0" encoding="utf-8"?>
<!-- Generator: Adobe Illustrator 24.2.3, SVG Export Plug-In . SVG Version: 6.00 Build 0)  -->
<svg version="1.1" id="Layer_1" xmlns="http://www.w3.org/2000/svg" xmlns:xlink="http://www.w3.org/1999/xlink" x="0px" y="0px"
	 viewBox="0 0 32.7 32.7" style="enable-background:new 0 0 32.7 32.7;" xml:space="preserve">
<style type="text/css">
	.st0{fill:#0D416B;}
	.st1{fill:#FFFFFF;}
</style>
<circle class="st0" cx="16.4" cy="16.8" r="16"/>
<g>
	<circle class="st1" cx="12.6" cy="12.7" r="1.6"/>
	<rect x="11" y="20" class="st1" width="1.6" height="5.7"/>
	<rect x="12.6" y="20" class="st1" width="1.6" height="5.7"/>
	<rect x="10.2" y="15.9" class="st1" width="4.9" height="4.9"/>
	<g>
		<polygon class="st1" points="8.3,19.8 7.2,18.6 10.4,15.4 11,15.1 11,15.1 14.2,15.1 14.2,15.1 14.8,15.4 18,18.6 16.9,19.8 
			13.9,16.8 11.3,16.8 		"/>
	</g>
	<g>
		<g>
			<path class="st1" d="M23.9,24.9h-1.6c0-0.9-0.7-1.6-1.6-1.6c-0.9,0-1.6,0.7-1.6,1.6h-1.6c0-1.8,1.5-3.2,3.2-3.2
				C22.5,21.6,23.9,23.1,23.9,24.9z"/>
		</g>
		<g>
			<rect x="19.9" y="20" class="st1" width="1.6" height="2.4"/>
		</g>
		<g>
			<rect x="22.3" y="24" class="st1" width="3.2" height="1.6"/>
		</g>
		<g>
			<rect x="15.8" y="24" class="st1" width="3.2" height="1.6"/>
		</g>
		<g>
			
				<rect x="17.3" y="21.1" transform="matrix(0.7071 -0.7071 0.7071 0.7071 -10.4476 19.3394)" class="st1" width="1.6" height="2.4"/>
		</g>
		<g>
			
				<rect x="22.1" y="21.5" transform="matrix(0.7071 -0.7071 0.7071 0.7071 -8.939 22.9836)" class="st1" width="2.4" height="1.6"/>
		</g>
	</g>
	<g>
		<g>
			<path class="st1" d="M20.7,15.9c-1.8,0-3.2-1.5-3.2-3.2c0-1.8,1.5-3.2,3.2-3.2c1.8,0,3.2,1.5,3.2,3.2
				C23.9,14.5,22.5,15.9,20.7,15.9z M20.7,11.1c-0.9,0-1.6,0.7-1.6,1.6c0,0.9,0.7,1.6,1.6,1.6c0.9,0,1.6-0.7,1.6-1.6
				C22.3,11.8,21.6,11.1,20.7,11.1z"/>
		</g>
		<g>
			<rect x="19.9" y="7.8" class="st1" width="1.6" height="2.4"/>
		</g>
		<g>
			<rect x="19.9" y="15.1" class="st1" width="1.6" height="2.4"/>
		</g>
		<g>
			<rect x="23.1" y="11.9" class="st1" width="2.4" height="1.6"/>
		</g>
		<g>
			<rect x="15.8" y="11.9" class="st1" width="2.4" height="1.6"/>
		</g>
		<g>
			<rect x="22.5" y="14.1" transform="matrix(0.7073 -0.707 0.707 0.7073 -3.9933 20.9296)" class="st1" width="1.6" height="2.4"/>
		</g>
		<g>
			
				<rect x="17.3" y="8.9" transform="matrix(0.7071 -0.7071 0.7071 0.7071 -1.8563 15.7808)" class="st1" width="1.6" height="2.4"/>
		</g>
		<g>
			<rect x="22.1" y="9.3" transform="matrix(0.7071 -0.7071 0.7071 0.7071 -0.348 19.4253)" class="st1" width="2.4" height="1.6"/>
		</g>
		<g>
			
				<rect x="16.9" y="14.5" transform="matrix(0.7071 -0.7071 0.7071 0.7071 -5.5019 17.2917)" class="st1" width="2.4" height="1.6"/>
		</g>
	</g>
</g>
</svg>
