<?xml version="1.0" encoding="utf-8"?>
<!-- Generator: Adobe Illustrator 24.2.3, SVG Export Plug-In . SVG Version: 6.00 Build 0)  -->
<svg version="1.1" id="Layer_1" xmlns="http://www.w3.org/2000/svg" xmlns:xlink="http://www.w3.org/1999/xlink" x="0px" y="0px"
	 viewBox="0 0 32.7 32.7" style="enable-background:new 0 0 32.7 32.7;" xml:space="preserve">
<style type="text/css">
	.st0{fill:#0D416B;}
	.st1{fill:#FFFFFF;}
</style>
<circle class="st0" cx="16.4" cy="16.5" r="16"/>
<g>
	<circle class="st1" cx="16.4" cy="11.4" r="1.5"/>
	<g>
		<path class="st1" d="M16.4,17.9c-2.8,0-5.1-2.3-5.1-5.1c0-2.8,2.3-5.1,5.1-5.1s5.1,2.3,5.1,5.1C21.5,15.7,19.2,17.9,16.4,17.9z
			 M16.4,9.2c-2,0-3.6,1.6-3.6,3.6c0,2,1.6,3.6,3.6,3.6s3.6-1.6,3.6-3.6C20,10.8,18.4,9.2,16.4,9.2z"/>
	</g>
	<path class="st1" d="M17.1,13.6h-1.5c-0.8,0-1.5,0.7-1.5,1.5v1.6c0.6,0.4,1.4,0.6,2.2,0.6c0.8,0,1.5-0.2,2.2-0.6V15
		C18.5,14.2,17.9,13.6,17.1,13.6z"/>
	<g>
		<polygon class="st1" points="23.7,22.3 22.2,22.3 22.2,20.1 10.5,20.1 10.5,22.3 9.1,22.3 9.1,18.7 23.7,18.7 		"/>
	</g>
	<g>
		<path class="st1" d="M9.8,25.2c-1.2,0-2.2-1-2.2-2.2s1-2.2,2.2-2.2s2.2,1,2.2,2.2S11,25.2,9.8,25.2z M9.8,22.3
			c-0.4,0-0.7,0.3-0.7,0.7c0,0.4,0.3,0.7,0.7,0.7s0.7-0.3,0.7-0.7C10.5,22.6,10.2,22.3,9.8,22.3z"/>
	</g>
	<g>
		<path class="st1" d="M16.4,25.2c-1.2,0-2.2-1-2.2-2.2s1-2.2,2.2-2.2s2.2,1,2.2,2.2S17.6,25.2,16.4,25.2z M16.4,22.3
			c-0.4,0-0.7,0.3-0.7,0.7c0,0.4,0.3,0.7,0.7,0.7s0.7-0.3,0.7-0.7C17.1,22.6,16.8,22.3,16.4,22.3z"/>
	</g>
	<g>
		<path class="st1" d="M22.9,25.2c-1.2,0-2.2-1-2.2-2.2s1-2.2,2.2-2.2c1.2,0,2.2,1,2.2,2.2S24.1,25.2,22.9,25.2z M22.9,22.3
			c-0.4,0-0.7,0.3-0.7,0.7c0,0.4,0.3,0.7,0.7,0.7c0.4,0,0.7-0.3,0.7-0.7C23.7,22.6,23.3,22.3,22.9,22.3z"/>
	</g>
	<g>
		<rect x="15.6" y="17.2" class="st1" width="1.5" height="4.4"/>
	</g>
</g>
</svg>
