<?xml version="1.0" encoding="utf-8"?>
<!-- Generator: Adobe Illustrator 24.2.3, SVG Export Plug-In . SVG Version: 6.00 Build 0)  -->
<svg version="1.1" id="Layer_1" xmlns="http://www.w3.org/2000/svg" xmlns:xlink="http://www.w3.org/1999/xlink" x="0px" y="0px"
	 viewBox="0 0 32.7 32.7" style="enable-background:new 0 0 32.7 32.7;" xml:space="preserve">
<style type="text/css">
	.st0{fill:#0D416B;}
	.st1{fill:#FFFFFF;}
</style>
<circle class="st0" cx="16.4" cy="16.4" r="16"/>
<g>
	<g>
		<g>
			<path class="st1" d="M17.3,20.5h-1.6c-1.3,0-2.4-1.1-2.4-2.4h1.6c0,0.4,0.4,0.8,0.8,0.8h1.6c0.4,0,0.8-0.4,0.8-0.8
				c0-0.4-0.4-0.8-0.8-0.8h-1.6c-1.3,0-2.4-1.1-2.4-2.4s1.1-2.4,2.4-2.4h1.6c1.3,0,2.4,1.1,2.4,2.4h-1.6c0-0.4-0.4-0.8-0.8-0.8h-1.6
				c-0.4,0-0.8,0.4-0.8,0.8c0,0.4,0.4,0.8,0.8,0.8h1.6c1.3,0,2.4,1.1,2.4,2.4S18.7,20.5,17.3,20.5z"/>
		</g>
		<g>
			<rect x="15.7" y="19.7" class="st1" width="1.6" height="1.6"/>
		</g>
		<g>
			<rect x="15.7" y="11.6" class="st1" width="1.6" height="1.6"/>
		</g>
	</g>
	<g>
		<path class="st1" d="M16.5,23.8c-4,0-7.3-3.3-7.3-7.3s3.3-7.3,7.3-7.3s7.3,3.3,7.3,7.3S20.6,23.8,16.5,23.8z M16.5,10.8
			c-3.1,0-5.7,2.5-5.7,5.7c0,3.1,2.5,5.7,5.7,5.7s5.7-2.5,5.7-5.7C22.2,13.3,19.7,10.8,16.5,10.8z"/>
	</g>
	<g>
		<rect x="15.7" y="6.7" class="st1" width="1.6" height="3.2"/>
	</g>
	<g>
		<rect x="15.7" y="22.9" class="st1" width="1.6" height="3.2"/>
	</g>
	<g>
		<rect x="23" y="15.7" class="st1" width="3.2" height="1.6"/>
	</g>
	<g>
		<rect x="6.8" y="15.7" class="st1" width="3.2" height="1.6"/>
	</g>
</g>
</svg>
