<?xml version="1.0" encoding="utf-8"?>
<!-- Generator: Adobe Illustrator 24.2.3, SVG Export Plug-In . SVG Version: 6.00 Build 0)  -->
<svg version="1.1" id="Layer_1" xmlns="http://www.w3.org/2000/svg" xmlns:xlink="http://www.w3.org/1999/xlink" x="0px" y="0px"
	 viewBox="0 0 32.7 32.7" style="enable-background:new 0 0 32.7 32.7;" xml:space="preserve">
<style type="text/css">
	.st0{fill:#0D416B;}
	.st1{fill:#FFFFFF;}
</style>
<circle class="st0" cx="16.4" cy="16.8" r="16"/>
<g>
	<g>
		<g>
			<path class="st1" d="M22.1,22.5L21,21.4c1.2-1.2,1.9-2.9,1.9-4.6c0-1.7-0.7-3.4-1.9-4.6c-1.8-1.8-4.3-2.4-6.7-1.6l-0.5-1.5
				c2.9-1,6.1-0.2,8.3,2c1.5,1.5,2.4,3.6,2.4,5.7C24.5,19,23.7,21,22.1,22.5z"/>
		</g>
		<g>
			<path class="st1" d="M16.4,24.9c-2.1,0-4.2-0.8-5.7-2.4c-1.5-1.5-2.4-3.6-2.4-5.7s0.8-4.2,2.4-5.7l1.1,1.1
				c-1.2,1.2-1.9,2.9-1.9,4.6c0,1.7,0.7,3.4,1.9,4.6c1.8,1.8,4.3,2.4,6.7,1.6l0.5,1.5C18.1,24.7,17.2,24.9,16.4,24.9z"/>
		</g>
		<polygon class="st1" points="8.2,10.3 12.3,10.3 12.3,14.3 		"/>
		<polygon class="st1" points="24.4,23.2 20.4,23.2 20.4,19.2 		"/>
	</g>
	<g>
		<rect x="15.5" y="11.9" class="st1" width="1.6" height="6.5"/>
	</g>
	<g>
		<rect x="15.5" y="19.2" class="st1" width="1.6" height="1.6"/>
	</g>
</g>
</svg>
