<?xml version="1.0" encoding="utf-8"?>
<!-- Generator: Adobe Illustrator 24.2.3, SVG Export Plug-In . SVG Version: 6.00 Build 0)  -->
<svg version="1.1" id="Layer_1" xmlns="http://www.w3.org/2000/svg" xmlns:xlink="http://www.w3.org/1999/xlink" x="0px" y="0px"
	 viewBox="0 0 32.7 32.7" style="enable-background:new 0 0 32.7 32.7;" xml:space="preserve">
<style type="text/css">
	.st0{fill:#0D416B;}
	.st1{fill:#FFFFFF;}
</style>
<circle class="st0" cx="16.4" cy="16.8" r="16"/>
<g>
	<g>
		<g>
			
				<rect x="17.8" y="17.9" transform="matrix(0.7071 -0.7071 0.7071 0.7071 -7.9953 18.7404)" class="st1" width="1.6" height="2.3"/>
		</g>
		<g>
			<path class="st1" d="M22.7,25.8l-5.2-5.2l2.8-2.8l5.2,5.2L22.7,25.8z M19.8,20.6l2.9,2.9l0.5-0.5l-2.9-2.9L19.8,20.6z"/>
		</g>
		<g>
			<path class="st1" d="M13.8,20.6c-3.6,0-6.5-2.9-6.5-6.5c0-3.6,2.9-6.5,6.5-6.5s6.5,2.9,6.5,6.5C20.2,17.7,17.3,20.6,13.8,20.6z
				 M13.8,9.3c-2.7,0-4.9,2.2-4.9,4.9s2.2,4.9,4.9,4.9s4.9-2.2,4.9-4.9S16.4,9.3,13.8,9.3z"/>
		</g>
	</g>
	<path class="st1" d="M17.2,15.1v-1.8H16c0,0,0,0,0,0l0.8-0.8l-1.3-1.3L14.7,12c0,0,0,0,0,0v-1.2h-1.8v1.2c0,0,0,0,0,0L12,11.1
		l-1.3,1.3l0.8,0.8c0,0,0,0,0,0h-1.2v1.8h1.2c0,0,0,0,0,0l-0.8,0.8l1.3,1.3l0.8-0.8c0,0,0,0,0,0v1.2h1.8v-1.2c0,0,0,0,0,0l0.8,0.8
		l1.3-1.3L16,15.1c0,0,0,0,0,0H17.2z M14.3,15.2c-0.1,0-0.1,0.1-0.2,0.1c-0.1,0-0.2,0-0.3,0c-0.1,0-0.2,0-0.3,0
		c-0.1,0-0.2-0.1-0.2-0.1c-0.2-0.1-0.4-0.3-0.5-0.5c0-0.1-0.1-0.1-0.1-0.2c0-0.1-0.1-0.2-0.1-0.4s0-0.2,0.1-0.4c0,0,0-0.1,0-0.1
		c0.1-0.3,0.3-0.5,0.6-0.6c0,0,0,0,0.1,0c0.1,0,0.3-0.1,0.4-0.1c0.1,0,0.3,0,0.4,0.1c0,0,0,0,0.1,0c0.3,0.1,0.5,0.3,0.6,0.6
		c0,0,0,0.1,0,0.1c0,0.1,0.1,0.2,0.1,0.4c0,0.1,0,0.2-0.1,0.4c0,0.1,0,0.1-0.1,0.2C14.7,14.9,14.5,15.1,14.3,15.2z"/>
</g>
</svg>
