<?xml version="1.0" encoding="utf-8"?>
<!-- Generator: Adobe Illustrator 24.2.3, SVG Export Plug-In . SVG Version: 6.00 Build 0)  -->
<svg version="1.1" id="Layer_1" xmlns="http://www.w3.org/2000/svg" xmlns:xlink="http://www.w3.org/1999/xlink" x="0px" y="0px"
	 viewBox="0 0 32.7 32.7" style="enable-background:new 0 0 32.7 32.7;" xml:space="preserve">
<style type="text/css">
	.st0{fill:#0D416B;}
	.st1{fill:#FFFFFF;}
</style>
<circle class="st0" cx="16.4" cy="16.4" r="16"/>
<g>
	<g>
		<polygon class="st1" points="24.1,24.4 8.1,24.4 8.1,8.3 9.5,8.3 9.5,22.9 24.1,22.9 		"/>
	</g>
	<g>
		<polygon class="st1" points="9.3,23.4 8.3,22.4 13.2,17.5 14.6,19 19.7,13.9 21.2,15.3 23.2,13.3 24.3,14.3 21.2,17.4 19.7,15.9 
			14.6,21 13.2,19.6 		"/>
	</g>
	<g>
		<polygon class="st1" points="15.6,16.9 12.5,13.7 9.3,16.9 8.3,15.8 12.5,11.7 16.6,15.8 		"/>
	</g>
	<g>
		<polygon class="st1" points="20.5,21.8 17.8,19.1 18.8,18 20.5,19.7 23.6,16.6 24.6,17.6 		"/>
	</g>
</g>
</svg>
