<?xml version="1.0" encoding="utf-8"?>
<!-- Generator: Adobe Illustrator 24.2.3, SVG Export Plug-In . SVG Version: 6.00 Build 0)  -->
<svg version="1.1" id="Layer_1" xmlns="http://www.w3.org/2000/svg" xmlns:xlink="http://www.w3.org/1999/xlink" x="0px" y="0px"
	 viewBox="0 0 32.7 32.7" style="enable-background:new 0 0 32.7 32.7;" xml:space="preserve">
<style type="text/css">
	.st0{fill:#0D416B;}
	.st1{fill:#FFFFFF;}
</style>
<circle class="st0" cx="16.4" cy="16.4" r="16"/>
<g>
	<path class="st1" d="M17.5,22.9H16c-0.8,0-1.5,0.7-1.5,1.5v0.7h4.4v-0.7C18.9,23.6,18.3,22.9,17.5,22.9z"/>
	<circle class="st1" cx="16.7" cy="20.7" r="1.5"/>
	<path class="st1" d="M11.6,22.9h-1.5c-0.8,0-1.5,0.7-1.5,1.5v0.7h4.4v-0.7C13.1,23.6,12.4,22.9,11.6,22.9z"/>
	<circle class="st1" cx="10.9" cy="20.7" r="1.5"/>
	<path class="st1" d="M23.3,22.9h-1.5c-0.8,0-1.5,0.7-1.5,1.5v0.7h4.4v-0.7C24.7,23.6,24.1,22.9,23.3,22.9z"/>
	<circle class="st1" cx="22.6" cy="20.7" r="1.5"/>
	<g>
		<rect x="8" y="17.1" class="st1" width="13.9" height="1.5"/>
	</g>
	<g>
		<rect x="18.9" y="17.8" class="st1" width="1.5" height="2.9"/>
	</g>
	<g>
		<path class="st1" d="M17.5,16.4H16v-0.7c0-0.4-0.3-0.7-0.7-0.7h-3.6c-0.4,0-0.7,0.3-0.7,0.7v0.7H9.4v-0.7c0-1.2,1-2.2,2.2-2.2h3.6
			c1.2,0,2.2,1,2.2,2.2V16.4z"/>
	</g>
	<g>
		<path class="st1" d="M13.4,12.7c-1.4,0-2.6-1.1-2.6-2.6c0-1.4,1.1-2.6,2.6-2.6S16,8.8,16,10.2C16,11.6,14.9,12.7,13.4,12.7z
			 M13.4,9.1c-0.6,0-1.1,0.5-1.1,1.1c0,0.6,0.5,1.1,1.1,1.1c0.6,0,1.1-0.5,1.1-1.1C14.5,9.6,14,9.1,13.4,9.1z"/>
	</g>
	<g>
		<polygon class="st1" points="20.4,16.4 18.9,16.4 18.9,13.7 17.7,12.5 18.7,11.5 20.4,13.1 		"/>
	</g>
</g>
</svg>
