<?xml version="1.0" encoding="utf-8"?>
<!-- Generator: Adobe Illustrator 24.2.3, SVG Export Plug-In . SVG Version: 6.00 Build 0)  -->
<svg version="1.1" id="Layer_1" xmlns="http://www.w3.org/2000/svg" xmlns:xlink="http://www.w3.org/1999/xlink" x="0px" y="0px"
	 viewBox="0 0 32.7 32.7" style="enable-background:new 0 0 32.7 32.7;" xml:space="preserve">
<style type="text/css">
	.st0{fill:#0D416B;}
	.st1{fill:#FFFFFF;}
</style>
<circle class="st0" cx="16.4" cy="16.8" r="16"/>
<g>
	<g>
		<path class="st1" d="M10.9,24.4c-0.4,0-0.8-0.2-1.1-0.4l-1.1-1.1c-0.3-0.3-0.4-0.7-0.4-1.1c0-0.4,0.2-0.8,0.4-1.1l4.5-4.5l1,1
			l-4.5,4.5l1.1,1.2l4.6-4.5l1,1L12,24C11.7,24.3,11.3,24.4,10.9,24.4z"/>
	</g>
	<g>
		<rect x="13.8" y="15.2" transform="matrix(0.707 -0.7072 0.7072 0.707 -8.6864 15.6179)" class="st1" width="1.5" height="6.2"/>
	</g>
	<g>
		<rect x="13.4" y="13.6" transform="matrix(0.7071 -0.7071 0.7071 0.7071 -4.7544 17.2424)" class="st1" width="10" height="1.5"/>
	</g>
	<g>
		<rect x="18" y="15.9" transform="matrix(0.7072 -0.707 0.707 0.7072 -7.6971 18.6841)" class="st1" width="1.5" height="5.4"/>
	</g>
	<g>
		<rect x="13" y="11.5" transform="matrix(0.707 -0.7072 0.7072 0.707 -5.636 13.7139)" class="st1" width="1.5" height="4.3"/>
	</g>
	<polygon class="st1" points="22.6,9.1 20.6,10.1 20.6,11.2 21.6,12.2 22.6,12.2 23.7,10.1 	"/>
	<path class="st1" d="M11.6,9.1c-0.3,0-0.6,0.1-0.8,0.2l1.9,1.9l-1.5,1.5l-1.9-1.9c-0.1,0.3-0.2,0.5-0.2,0.8c0,1.4,1.1,2.6,2.6,2.6
		s2.6-1.1,2.6-2.6S13,9.1,11.6,9.1z"/>
	<path class="st1" d="M21.8,24.4c0.3,0,0.6-0.1,0.8-0.2l-1.9-1.9l1.5-1.5l1.9,1.9c0.1-0.3,0.2-0.5,0.2-0.8c0-1.4-1.1-2.6-2.6-2.6
		s-2.6,1.1-2.6,2.6C19.3,23.3,20.4,24.4,21.8,24.4z"/>
</g>
</svg>
