<?xml version="1.0" encoding="utf-8"?>
<!-- Generator: Adobe Illustrator 24.2.3, SVG Export Plug-In . SVG Version: 6.00 Build 0)  -->
<svg version="1.1" id="Layer_1" xmlns="http://www.w3.org/2000/svg" xmlns:xlink="http://www.w3.org/1999/xlink" x="0px" y="0px"
	 viewBox="0 0 32.7 32.7" style="enable-background:new 0 0 32.7 32.7;" xml:space="preserve">
<style type="text/css">
	.st0{fill:#0D416B;}
	.st1{fill:#FFFFFF;}
</style>
<circle class="st0" cx="16.4" cy="16.5" r="16"/>
<g>
	<g>
		<g>
			<g>
				<polygon class="st1" points="20,24.1 8.3,24.1 8.3,10.3 21.5,10.3 21.5,11.7 9.8,11.7 9.8,22.7 20,22.7 				"/>
			</g>
			<g>
				<polygon class="st1" points="24.4,24.1 20,24.1 20,22.7 22.9,22.7 22.9,11.7 21.5,11.7 21.5,10.3 24.4,10.3 				"/>
			</g>
			<g>
				<rect x="11.3" y="8.8" class="st1" width="1.5" height="4.4"/>
			</g>
			<g>
				<rect x="20" y="8.8" class="st1" width="1.5" height="4.4"/>
			</g>
			<g>
				<rect x="9.1" y="13.9" class="st1" width="14.6" height="1.5"/>
			</g>
		</g>
	</g>
	<g>
		<polygon class="st1" points="15.6,21.6 13.6,19.7 14.6,18.6 15.6,19.6 18.7,16.4 19.7,17.5 		"/>
	</g>
</g>
</svg>
