<?xml version="1.0" encoding="utf-8"?>
<!-- Generator: Adobe Illustrator 24.2.3, SVG Export Plug-In . SVG Version: 6.00 Build 0)  -->
<svg version="1.1" id="Layer_1" xmlns="http://www.w3.org/2000/svg" xmlns:xlink="http://www.w3.org/1999/xlink" x="0px" y="0px"
	 viewBox="0 0 32.7 32.7" style="enable-background:new 0 0 32.7 32.7;" xml:space="preserve">
<style type="text/css">
	.st0{fill:#0D416B;}
	.st1{fill:#FFFFFF;}
</style>
<circle class="st0" cx="16.4" cy="16.5" r="16"/>
<g>
	<g>
		<polygon class="st1" points="25.1,15.1 23.7,15.1 23.7,14.8 16.4,10.1 9.1,14.8 9.1,15.1 7.6,15.1 7.6,14 16.4,8.4 25.1,14 		"/>
	</g>
	<g>
		<rect x="9.1" y="20.9" class="st1" width="14.6" height="1.5"/>
	</g>
	<g>
		<rect x="8.3" y="23.1" class="st1" width="16" height="1.5"/>
	</g>
	<g>
		<rect x="9.8" y="15.8" class="st1" width="1.5" height="5.8"/>
	</g>
	<g>
		<rect x="9.1" y="15.1" class="st1" width="2.9" height="1.5"/>
	</g>
	<g>
		<rect x="13.4" y="15.8" class="st1" width="1.5" height="5.8"/>
	</g>
	<g>
		<rect x="12.7" y="15.1" class="st1" width="2.9" height="1.5"/>
	</g>
	<g>
		<rect x="17.8" y="15.8" class="st1" width="1.5" height="5.8"/>
	</g>
	<g>
		<rect x="17.1" y="15.1" class="st1" width="2.9" height="1.5"/>
	</g>
	<g>
		<rect x="21.5" y="15.8" class="st1" width="1.5" height="5.8"/>
	</g>
	<g>
		<rect x="20.7" y="15.1" class="st1" width="2.9" height="1.5"/>
	</g>
	<g>
		<rect x="15.6" y="18.7" class="st1" width="1.5" height="2.9"/>
	</g>
</g>
</svg>
